<svg xmlns="http://www.w3.org/2000/svg" width="800" height="500" viewBox="0 0 800 500" font-family="Arial, Helvetica, sans-serif">
<defs><linearGradient id="bg" x1="0" y1="0" x2="0" y2="1"><stop offset="0" stop-color="#3d5a3a"/><stop offset="1" stop-color="#2b3d28"/></linearGradient></defs>
<rect width="800" height="500" fill="url(#bg)"/>
<rect x="137" y="351" width="48" height="46" fill="#4b6b3a" opacity="0.85" rx="6"/>
<rect x="507" y="290" width="100" height="71" fill="#7a6b45" opacity="0.85" rx="6"/>
<rect x="214" y="108" width="102" height="31" fill="#7a6b45" opacity="0.85" rx="6"/>
<rect x="443" y="371" width="40" height="74" fill="#7a6b45" opacity="0.85" rx="6"/>
<rect x="272" y="429" width="69" height="67" fill="#4b6b3a" opacity="0.85" rx="6"/>
<rect x="325" y="75" width="42" height="31" fill="#8a7a55" opacity="0.85" rx="6"/>
<rect x="554" y="64" width="88" height="73" fill="#5c7a45" opacity="0.85" rx="6"/>
<rect x="432" y="74" width="107" height="44" fill="#7a6b45" opacity="0.85" rx="6"/>
<rect x="507" y="343" width="69" height="52" fill="#5c7a45" opacity="0.85" rx="6"/>
<rect x="693" y="172" width="98" height="90" fill="#6b5b3a" opacity="0.85" rx="6"/>
<rect x="22" y="273" width="111" height="89" fill="#8a7a55" opacity="0.85" rx="6"/>
<rect x="102" y="155" width="120" height="76" fill="#6b5b3a" opacity="0.85" rx="6"/>
<rect x="123" y="230" width="104" height="89" fill="#7a6b45" opacity="0.85" rx="6"/>
<rect x="519" y="403" width="64" height="49" fill="#6b5b3a" opacity="0.85" rx="6"/>
<rect x="601" y="315" width="104" height="55" fill="#3f5a34" opacity="0.85" rx="6"/>
<rect x="35" y="305" width="71" height="77" fill="#7a6b45" opacity="0.85" rx="6"/>
<rect x="424" y="400" width="62" height="53" fill="#3f5a34" opacity="0.85" rx="6"/>
<rect x="690" y="251" width="51" height="58" fill="#8a7a55" opacity="0.85" rx="6"/>
<rect x="520" y="115" width="60" height="63" fill="#7a6b45" opacity="0.85" rx="6"/>
<rect x="379" y="310" width="43" height="60" fill="#4b6b3a" opacity="0.85" rx="6"/>
<rect x="315" y="420" width="118" height="67" fill="#3f5a34" opacity="0.85" rx="6"/>
<rect x="403" y="391" width="61" height="40" fill="#3f5a34" opacity="0.85" rx="6"/>
<rect x="232" y="66" width="65" height="64" fill="#3f5a34" opacity="0.85" rx="6"/>
<rect x="237" y="267" width="105" height="52" fill="#3f5a34" opacity="0.85" rx="6"/>
<rect x="361" y="295" width="74" height="72" fill="#3f5a34" opacity="0.85" rx="6"/>
<rect x="623" y="62" width="89" height="80" fill="#8a7a55" opacity="0.85" rx="6"/>
<line x1="0" y1="52" x2="0" y2="470" stroke="#2f3d28" stroke-width="1" opacity="0.3"/>
<line x1="80" y1="52" x2="80" y2="470" stroke="#2f3d28" stroke-width="1" opacity="0.3"/>
<line x1="160" y1="52" x2="160" y2="470" stroke="#2f3d28" stroke-width="1" opacity="0.3"/>
<line x1="240" y1="52" x2="240" y2="470" stroke="#2f3d28" stroke-width="1" opacity="0.3"/>
<line x1="320" y1="52" x2="320" y2="470" stroke="#2f3d28" stroke-width="1" opacity="0.3"/>
<line x1="400" y1="52" x2="400" y2="470" stroke="#2f3d28" stroke-width="1" opacity="0.3"/>
<line x1="480" y1="52" x2="480" y2="470" stroke="#2f3d28" stroke-width="1" opacity="0.3"/>
<line x1="560" y1="52" x2="560" y2="470" stroke="#2f3d28" stroke-width="1" opacity="0.3"/>
<line x1="640" y1="52" x2="640" y2="470" stroke="#2f3d28" stroke-width="1" opacity="0.3"/>
<line x1="720" y1="52" x2="720" y2="470" stroke="#2f3d28" stroke-width="1" opacity="0.3"/>
<rect x="0" y="0" width="800" height="52" fill="rgba(0,0,0,0.55)"/>
<text x="16" y="26" fill="#fff" font-size="17" font-weight="700">«До» — Строительство детского сада на 160 мест в п. Заокский</text>
<text x="16" y="45" fill="#e0e0e0" font-size="13">Архивный снимок места · 2020 (Sentinel-2/Landsat, демо)</text>
<rect x="0" y="470" width="800" height="30" fill="rgba(0,0,0,0.6)"/>
<text x="16" y="490" fill="#ffcc80" font-size="13" font-weight="700">ДЕМО-ДАННЫЕ · не является реальным фото/снимком</text>
</svg>