<svg xmlns="http://www.w3.org/2000/svg" width="800" height="500" viewBox="0 0 800 500" font-family="Arial, Helvetica, sans-serif">
<defs><linearGradient id="bg" x1="0" y1="0" x2="0" y2="1"><stop offset="0" stop-color="#bfe3ff"/><stop offset="1" stop-color="#e1f5fe"/></linearGradient></defs>
<rect width="800" height="500" fill="url(#bg)"/>
<rect x="0" y="52" width="800" height="200" fill="#bfe3ff"/>
<circle cx="660" cy="120" r="34" fill="#fff59d"/>
<rect x="0" y="250" width="800" height="220" fill="#c8e6c9"/>
<rect x="150" y="150" width="500" height="230" fill="#eceff1" stroke="#90a4ae" stroke-width="3"/>
<polygon points="150,150 400,80 650,150" fill="#b0bec5"/>
<rect x="180" y="180" width="40" height="32" fill="#81d4fa" stroke="#4fc3f7"/>
<rect x="180" y="230" width="40" height="32" fill="#81d4fa" stroke="#4fc3f7"/>
<rect x="180" y="280" width="40" height="32" fill="#81d4fa" stroke="#4fc3f7"/>
<rect x="180" y="330" width="40" height="32" fill="#81d4fa" stroke="#4fc3f7"/>
<rect x="240" y="180" width="40" height="32" fill="#81d4fa" stroke="#4fc3f7"/>
<rect x="240" y="230" width="40" height="32" fill="#81d4fa" stroke="#4fc3f7"/>
<rect x="240" y="280" width="40" height="32" fill="#81d4fa" stroke="#4fc3f7"/>
<rect x="240" y="330" width="40" height="32" fill="#81d4fa" stroke="#4fc3f7"/>
<rect x="300" y="180" width="40" height="32" fill="#81d4fa" stroke="#4fc3f7"/>
<rect x="300" y="230" width="40" height="32" fill="#81d4fa" stroke="#4fc3f7"/>
<rect x="300" y="280" width="40" height="32" fill="#81d4fa" stroke="#4fc3f7"/>
<rect x="300" y="330" width="40" height="32" fill="#81d4fa" stroke="#4fc3f7"/>
<rect x="360" y="180" width="40" height="32" fill="#81d4fa" stroke="#4fc3f7"/>
<rect x="360" y="230" width="40" height="32" fill="#81d4fa" stroke="#4fc3f7"/>
<rect x="360" y="280" width="40" height="32" fill="#81d4fa" stroke="#4fc3f7"/>
<rect x="360" y="330" width="40" height="32" fill="#81d4fa" stroke="#4fc3f7"/>
<rect x="420" y="180" width="40" height="32" fill="#81d4fa" stroke="#4fc3f7"/>
<rect x="420" y="230" width="40" height="32" fill="#81d4fa" stroke="#4fc3f7"/>
<rect x="420" y="280" width="40" height="32" fill="#81d4fa" stroke="#4fc3f7"/>
<rect x="420" y="330" width="40" height="32" fill="#81d4fa" stroke="#4fc3f7"/>
<rect x="480" y="180" width="40" height="32" fill="#81d4fa" stroke="#4fc3f7"/>
<rect x="480" y="230" width="40" height="32" fill="#81d4fa" stroke="#4fc3f7"/>
<rect x="480" y="280" width="40" height="32" fill="#81d4fa" stroke="#4fc3f7"/>
<rect x="480" y="330" width="40" height="32" fill="#81d4fa" stroke="#4fc3f7"/>
<rect x="540" y="180" width="40" height="32" fill="#81d4fa" stroke="#4fc3f7"/>
<rect x="540" y="230" width="40" height="32" fill="#81d4fa" stroke="#4fc3f7"/>
<rect x="540" y="280" width="40" height="32" fill="#81d4fa" stroke="#4fc3f7"/>
<rect x="540" y="330" width="40" height="32" fill="#81d4fa" stroke="#4fc3f7"/>
<rect x="600" y="180" width="40" height="32" fill="#81d4fa" stroke="#4fc3f7"/>
<rect x="600" y="230" width="40" height="32" fill="#81d4fa" stroke="#4fc3f7"/>
<rect x="600" y="280" width="40" height="32" fill="#81d4fa" stroke="#4fc3f7"/>
<rect x="600" y="330" width="40" height="32" fill="#81d4fa" stroke="#4fc3f7"/>
<rect x="360" y="300" width="80" height="80" fill="#90a4ae"/>
<rect x="8" y="60" width="784" height="404" fill="none" stroke="#e65100" stroke-width="4" stroke-dasharray="14 8"/>
<rect x="300" y="66" width="200" height="26" fill="#e65100"/>
<text x="400" y="85" fill="#fff" font-size="14" text-anchor="middle" font-weight="700">материал предоставлен заказчиком</text>
<rect x="0" y="0" width="800" height="52" fill="rgba(0,0,0,0.55)"/>
<text x="16" y="26" fill="#fff" font-size="17" font-weight="700">«После» — Детская школа искусств в Заокском районе</text>
<text x="16" y="45" fill="#e0e0e0" font-size="13">Архитектурный рендер · Проектный облик (плановый ввод) · 2028 (демо)</text>
<rect x="0" y="470" width="800" height="30" fill="rgba(0,0,0,0.6)"/>
<text x="16" y="490" fill="#ffcc80" font-size="13" font-weight="700">ДЕМО-ДАННЫЕ · не является реальным фото/снимком</text>
</svg>