<svg xmlns="http://www.w3.org/2000/svg" width="800" height="500" viewBox="0 0 800 500" font-family="Arial, Helvetica, sans-serif">
<defs><linearGradient id="bg" x1="0" y1="0" x2="0" y2="1"><stop offset="0" stop-color="#3d5a3a"/><stop offset="1" stop-color="#2b3d28"/></linearGradient></defs>
<rect width="800" height="500" fill="url(#bg)"/>
<rect x="192" y="109" width="78" height="89" fill="#8a7a55" opacity="0.85" rx="6"/>
<rect x="263" y="278" width="44" height="71" fill="#5c7a45" opacity="0.85" rx="6"/>
<rect x="667" y="265" width="64" height="89" fill="#8a7a55" opacity="0.85" rx="6"/>
<rect x="482" y="253" width="109" height="30" fill="#5c7a45" opacity="0.85" rx="6"/>
<rect x="178" y="237" width="94" height="51" fill="#8a7a55" opacity="0.85" rx="6"/>
<rect x="416" y="419" width="63" height="41" fill="#6b5b3a" opacity="0.85" rx="6"/>
<rect x="373" y="87" width="66" height="79" fill="#4b6b3a" opacity="0.85" rx="6"/>
<rect x="199" y="133" width="99" height="48" fill="#5c7a45" opacity="0.85" rx="6"/>
<rect x="610" y="389" width="107" height="46" fill="#8a7a55" opacity="0.85" rx="6"/>
<rect x="171" y="380" width="104" height="72" fill="#8a7a55" opacity="0.85" rx="6"/>
<rect x="399" y="102" width="104" height="30" fill="#4b6b3a" opacity="0.85" rx="6"/>
<rect x="469" y="405" width="86" height="44" fill="#7a6b45" opacity="0.85" rx="6"/>
<rect x="87" y="270" width="92" height="42" fill="#8a7a55" opacity="0.85" rx="6"/>
<rect x="686" y="127" width="40" height="66" fill="#6b5b3a" opacity="0.85" rx="6"/>
<rect x="321" y="336" width="110" height="49" fill="#4b6b3a" opacity="0.85" rx="6"/>
<rect x="687" y="342" width="104" height="81" fill="#8a7a55" opacity="0.85" rx="6"/>
<rect x="58" y="165" width="90" height="40" fill="#4b6b3a" opacity="0.85" rx="6"/>
<rect x="23" y="115" width="96" height="76" fill="#7a6b45" opacity="0.85" rx="6"/>
<rect x="137" y="103" width="78" height="42" fill="#7a6b45" opacity="0.85" rx="6"/>
<rect x="709" y="298" width="105" height="55" fill="#7a6b45" opacity="0.85" rx="6"/>
<rect x="128" y="94" width="56" height="80" fill="#5c7a45" opacity="0.85" rx="6"/>
<rect x="438" y="306" width="70" height="86" fill="#7a6b45" opacity="0.85" rx="6"/>
<rect x="113" y="105" width="67" height="67" fill="#4b6b3a" opacity="0.85" rx="6"/>
<rect x="319" y="227" width="68" height="84" fill="#5c7a45" opacity="0.85" rx="6"/>
<rect x="322" y="212" width="68" height="85" fill="#4b6b3a" opacity="0.85" rx="6"/>
<rect x="489" y="138" width="51" height="66" fill="#8a7a55" opacity="0.85" rx="6"/>
<line x1="0" y1="52" x2="0" y2="470" stroke="#2f3d28" stroke-width="1" opacity="0.3"/>
<line x1="80" y1="52" x2="80" y2="470" stroke="#2f3d28" stroke-width="1" opacity="0.3"/>
<line x1="160" y1="52" x2="160" y2="470" stroke="#2f3d28" stroke-width="1" opacity="0.3"/>
<line x1="240" y1="52" x2="240" y2="470" stroke="#2f3d28" stroke-width="1" opacity="0.3"/>
<line x1="320" y1="52" x2="320" y2="470" stroke="#2f3d28" stroke-width="1" opacity="0.3"/>
<line x1="400" y1="52" x2="400" y2="470" stroke="#2f3d28" stroke-width="1" opacity="0.3"/>
<line x1="480" y1="52" x2="480" y2="470" stroke="#2f3d28" stroke-width="1" opacity="0.3"/>
<line x1="560" y1="52" x2="560" y2="470" stroke="#2f3d28" stroke-width="1" opacity="0.3"/>
<line x1="640" y1="52" x2="640" y2="470" stroke="#2f3d28" stroke-width="1" opacity="0.3"/>
<line x1="720" y1="52" x2="720" y2="470" stroke="#2f3d28" stroke-width="1" opacity="0.3"/>
<rect x="0" y="0" width="800" height="52" fill="rgba(0,0,0,0.55)"/>
<text x="16" y="26" fill="#fff" font-size="17" font-weight="700">«До» — Общежитие ГПОУ ТО &quot;Ясногорский технологический техникум&quot;</text>
<text x="16" y="45" fill="#e0e0e0" font-size="13">Архивный снимок места · 2018 (Sentinel-2/Landsat, демо)</text>
<rect x="0" y="470" width="800" height="30" fill="rgba(0,0,0,0.6)"/>
<text x="16" y="490" fill="#ffcc80" font-size="13" font-weight="700">ДЕМО-ДАННЫЕ · не является реальным фото/снимком</text>
</svg>